# xmcd CD database file
#
# Track frame offsets:
#	150
#	13327
#	26525
#	40382
#	55161
#	68801
#	84192
#	95938
#	109679
#	122582
#	135897
#	149490
#	163632
#	176899
#	188488
#	202016
#	217144
#	229065
#	241308
#	254973
#
# Disc length: 3585 seconds
#
# Revision: 4
# Processed by: cddbd v1.5.2PL0 Copyright (c) Steve Scherf et al.
# Submitted via: CDex 1.51
#
DISCID=280dff14
DTITLE=Louis Armstrong - it's Louis Armstrong - Vol.9
DYEAR=1900
DGENRE=Jazz
TTITLE0=Whatta Ya Gonna Do
TTITLE1=No Variety Blues
TTITLE2=Joseph `N His Brudders
TTITLE3=Back O'Town Blues
TTITLE4=I Want A Little Girl
TTITLE5=Sugar
TTITLE6=Blues For Yesterday
TTITLE7=Blues In The South
TTITLE8=Endie
TTITLE9=The Blues Are Brewin'
TTITLE10=Do you Know What It Means To Miss New Orleans
TTITLE11=Where The Blues Is Born In New Orleans
TTITLE12=Mahogany Hall Stomp
TTITLE13=I Wonder, I Wonder, I Wonder
TTITLE14=I Believe
TTITLE15=Why Doubt My Love
TTITLE16=It Takes Time
TTITLE17=You Dont Learn That In School
TTITLE18=Jack-Armstrong Blues
TTITLE19=Rockin` Chair
EXTD=
EXTT0=
EXTT1=
EXTT2=
EXTT3=
EXTT4=
EXTT5=
EXTT6=
EXTT7=
EXTT8=
EXTT9=
EXTT10=
EXTT11=
EXTT12=
EXTT13=
EXTT14=
EXTT15=
EXTT16=
EXTT17=
EXTT18=
EXTT19=
PLAYORDER=
